<svg id="theBee" data-name="theBee" xmlns="http://www.w3.org/2000/svg" viewBox="0 0 63.54 75.06">
    <defs>
        <style>
        .bee-wings{animation: beewings 150ms ease-in-out infinite;}
        @keyframes beewings { 0%,20%,57%,82% { transform: rotateY(15deg); } 5%,50%,97% { transform: rotateY(-45deg); }}
        .cls-1,.cls-3{fill:none;}
        .cls-1,.cls-3,.cls-5,.cls-6,.cls-7{stroke:#231f20;}
        .cls-1,.cls-5,.cls-6,.cls-7{stroke-linecap:round;}
        .cls-1,.cls-3,.cls-5,.cls-6{stroke-miterlimit:10;}
        .cls-1,.cls-3,.cls-5,.cls-7{stroke-width:0.97px;}
        .cls-2,.cls-5,.cls-6{fill:#231f20;}
        .cls-4{fill:#fee757;}
        .cls-6{stroke-width:1.77px;}
        .cls-7{fill:#fff6c4;stroke-linejoin:round;}
        .cls-8{fill:#fff;}
        </style>
    </defs>
    <path class="cls-1" d="M20.92,66.52a4.55,4.55,0,0,1,1.4,5.39"/>
    <path class="cls-1" d="M17.07,71.43A7.52,7.52,0,0,0,18,65"/>
    <path class="cls-1" d="M29,65.92A2.94,2.94,0,0,0,28,68.76a4.7,4.7,0,0,0,.84,1.73"/>
    <path class="cls-1" d="M28.3,66a4.55,4.55,0,0,0-1.4,5.39"/>
    <path class="cls-2" d="M5.16,29.48C3.44,27.61,1.73,24,0,22.15L7.95,28.5"/>
    <path class="cls-3" d="M7.07,24.36A16.14,16.14,0,0,0,2.9,31.22c-1.35,4.48-.9,9.31-.11,13.92C3.63,50.07,4.93,55.08,8,59c5.69,7.42,15.94,9.38,25.27,10.11,6.2.49,12.94.52,18-3.09s7.17-9.86,8-15.91c1.06-7.4.48-15.3-3.29-21.76C48.44,15.45,18.87,12.67,7.07,24.36Z"/>
    <path class="cls-4" d="M7.07,24.36A16.14,16.14,0,0,0,2.9,31.22c-1.35,4.48-.9,9.31-.11,13.92C3.63,50.07,4.93,55.08,8,59c5.69,7.42,15.94,9.38,25.27,10.11,6.2.49,12.94.52,18-3.09s7.17-9.86,8-15.91c1.06-7.4.48-15.3-3.29-21.76C48.44,15.45,18.87,12.67,7.07,24.36Z"/>
    <path class="cls-2" d="M7.17,24.47A16,16,0,0,0,4,29a16.37,16.37,0,0,0-1.37,5.3,35.16,35.16,0,0,0,1.1,10.91A42.38,42.38,0,0,0,7.18,55.4a19.9,19.9,0,0,0,7,7.57,32.56,32.56,0,0,0,10,4.13c1.78.44,3.59.81,5.42,1.09s3.67.47,5.52.61A30.71,30.71,0,0,0,46,68a15.28,15.28,0,0,0,4.8-2.4,15.66,15.66,0,0,0,3.57-3.93A27.09,27.09,0,0,0,57.88,51.5a44.68,44.68,0,0,0,.37-10.81A28.08,28.08,0,0,0,55.4,30.52a15.8,15.8,0,0,0-2.94-4.14,21,21,0,0,0-4.11-3.14,35.05,35.05,0,0,0-9.91-3.89c-1.76-.4-3.54-.74-5.33-1s-3.62-.38-5.44-.43A38,38,0,0,0,16.78,19.2,22.41,22.41,0,0,0,7.17,24.47ZM7,24.26a22.12,22.12,0,0,1,4.47-3.4,30.37,30.37,0,0,1,5.1-2.41A43.83,43.83,0,0,1,22,16.86,48.48,48.48,0,0,1,27.61,16a38.87,38.87,0,0,1,22.34,4.54,22.91,22.91,0,0,1,4.73,3.63,18.05,18.05,0,0,1,2,2.35,19.92,19.92,0,0,1,1.49,2.62A31,31,0,0,1,61,40.46a42.29,42.29,0,0,1-.83,11.45,27.16,27.16,0,0,1-4.41,10.61,17.08,17.08,0,0,1-4.16,4.05,18.59,18.59,0,0,1-5.26,2.33,37.3,37.3,0,0,1-11.25.83,94.88,94.88,0,0,1-11.22-1.06,40,40,0,0,1-5.55-1.34A26.27,26.27,0,0,1,13,65,19.84,19.84,0,0,1,4.9,56.57a33.36,33.36,0,0,1-3-11.08,37.85,37.85,0,0,1,0-11.32A17.77,17.77,0,0,1,7,24.26Z"/>
    <path class="cls-2" d="M7.48,52.74C7.83,49,8.22,44.77,9,41a28.85,28.85,0,0,1,5.8-12.9c3.52-4.29,8.19-8.64,13.51-10.54,1-.37-.54.42-.6-.63a40.43,40.43,0,0,0-10.11,1.56A37.35,37.35,0,0,0,7.43,30.18C4.25,35.74,3.37,41.13,3.07,46.65c.63,3.28,1.86,8.17,4.07,10.72C6.88,57.07,7.38,53.75,7.48,52.74Z"/>
    <path class="cls-2" d="M18.44,65c-2-4.33-2.68-16.06,2.4-27.45A27,27,0,0,1,32.77,24.92,38.51,38.51,0,0,1,38,22.6c1.84-.67,5.69-2.29,5.69-2.29S44,19.3,42,19c0-.07,0-.13-.06-.2a42.25,42.25,0,0,0-5-1.16A32.71,32.71,0,0,0,16.4,35.58c-3,6.81-5.73,19.07-3.59,27.93a27.1,27.1,0,0,0,5.83,2.87A2.42,2.42,0,0,0,18.44,65Z"/>
    <path class="cls-2" d="M32.61,41.19C36.79,35.13,45.44,31,54.12,30.92l3.15-.12-.73-1.4c-.18-.34-.36-.68-.56-1a15.12,15.12,0,0,0-1.68-2.32h-.23c-10.36.1-20.35,5-25.47,12.37s-8.19,20.29-4.95,29.38c1.89.42,3.82.73,5.75,1l-.58-1.18C25.28,60.41,28,47.91,32.61,41.19Z"/>
    <path class="cls-1" d="M14.37,70.23a7.52,7.52,0,0,0,2.45-6"/>
    <path class="cls-1" d="M19.44,66.81a2.94,2.94,0,0,1,1.06,2.85,4.7,4.7,0,0,1-.84,1.73"/>
    <path class="cls-5" d="M57.72,42.91a3.9,3.9,0,0,0-3.12,3.26c-.59,2.85,1.57,6.15,4.67,6,2.33-.11,4.23-3.46,3.7-5.73A4.58,4.58,0,0,0,57.72,42.91Z"/><ellipse class="cls-2" cx="61.28" cy="47.15" rx="2.06" ry="1.75" transform="translate(1.52 96.21) rotate(-76.96)"/>
    <path class="cls-6" d="M43.29,50.23a4.38,4.38,0,0,0-5,.79c-2.47,2.14-2.77,6.56.09,8.53,2.16,1.48,6.13-.22,7.2-2.61A5.15,5.15,0,0,0,43.29,50.23Z"/><circle class="cls-2" cx="41.42" cy="55.12" r="1.74" transform="translate(-27.53 54.75) rotate(-52.77)"/>
    <path class="cls-7 bee-wings" d="M16.28,13.26c-2.57-2.11-4.73-5.11-4.66-8.44.11-5.18,6.58-5,9.91-3.09,4.26,2.5,5.94,10.85,5.34,15.41.41-3.09-.59-6.18-.7-9.29-.07-2.24.66-6,3-7.08a3.63,3.63,0,0,1,3.7.91,7.25,7.25,0,0,1,2,7.19c-1,3.61-6.45,9.63-10.37,8.59A21.74,21.74,0,0,1,16.28,13.26Z"/>    
    <path class="cls-8" d="M61.26,45.58c-.71-.42-1.71-.37-1.8.83a1.25,1.25,0,0,0,1.73,1.15C62.4,46.93,62,46,61.26,45.58Z"/>
    <path class="cls-8" d="M40.82,53.1c-1.26.16-1.25,2.45-.19,2.9a2.2,2.2,0,0,0,2.47-1c.48-1.25-1.18-2-2.2-1.88Z"/>
</svg>